<svg width="253" height="94" viewBox="0 0 253 94" fill="none" xmlns="http://www.w3.org/2000/svg">
<g filter="url(#filter0_d_0_1)">
<rect x="49" y="59" width="25" height="3" fill="white"/>
</g>
<g filter="url(#filter1_d_0_1)">
<rect x="31" y="59" width="25" height="3" fill="white"/>
</g>
<rect x="14" width="71" height="71" rx="21" fill="url(#paint0_linear_0_1)"/>
<rect x="14" width="71" height="71" rx="21" fill="white" fill-opacity="0.41"/>
<rect x="14" y="4" width="71" height="71" rx="21" fill="url(#paint1_linear_0_1)"/>
<rect x="49.7488" y="15" width="35" height="35" rx="5" transform="rotate(45 49.7488 15)" fill="white"/>
<path d="M106.036 54V21.34H112.936V35.094H112.016C112.261 33.6527 112.737 32.472 113.442 31.552C114.178 30.632 115.083 29.942 116.156 29.482C117.26 29.022 118.456 28.792 119.744 28.792C121.584 28.792 123.117 29.1907 124.344 29.988C125.571 30.7853 126.491 31.8893 127.104 33.3C127.748 34.7107 128.07 36.3207 128.07 38.13V54H121.17V39.786C121.17 37.946 120.879 36.566 120.296 35.646C119.744 34.726 118.793 34.266 117.444 34.266C116.033 34.266 114.929 34.7413 114.132 35.692C113.335 36.6427 112.936 38.0687 112.936 39.97V54H106.036ZM140.887 54.552C138.342 54.552 136.256 53.9693 134.631 52.804C133.036 51.608 132.239 49.952 132.239 47.836C132.239 45.6587 132.914 43.9873 134.263 42.822C135.643 41.626 137.667 40.752 140.335 40.2L148.293 38.636C148.293 37.0413 147.925 35.8453 147.189 35.048C146.484 34.22 145.456 33.806 144.107 33.806C142.788 33.806 141.761 34.1127 141.025 34.726C140.289 35.3087 139.814 36.1827 139.599 37.348L132.653 37.026C133.113 34.3273 134.324 32.288 136.287 30.908C138.28 29.4973 140.887 28.792 144.107 28.792C147.787 28.792 150.547 29.666 152.387 31.414C154.258 33.162 155.193 35.7227 155.193 39.096V47.514C155.193 48.2193 155.3 48.6947 155.515 48.94C155.76 49.1547 156.113 49.262 156.573 49.262H157.263V54C157.048 54.0613 156.696 54.1227 156.205 54.184C155.745 54.2453 155.285 54.276 154.825 54.276C153.844 54.276 152.924 54.1073 152.065 53.77C151.237 53.4327 150.562 52.8653 150.041 52.068C149.52 51.24 149.259 50.0747 149.259 48.572L149.857 49.032C149.55 50.136 148.998 51.102 148.201 51.93C147.434 52.758 146.422 53.402 145.165 53.862C143.938 54.322 142.512 54.552 140.887 54.552ZM142.543 49.814C143.678 49.814 144.674 49.5993 145.533 49.17C146.392 48.71 147.066 48.0507 147.557 47.192C148.048 46.3333 148.293 45.3213 148.293 44.156V42.96L142.681 44.156C141.577 44.3707 140.734 44.7387 140.151 45.26C139.599 45.7507 139.323 46.3947 139.323 47.192C139.323 48.02 139.599 48.664 140.151 49.124C140.703 49.584 141.5 49.814 142.543 49.814ZM169.75 54C167.205 54 165.334 53.4173 164.138 52.252C162.942 51.056 162.344 49.17 162.344 46.594V23.548H169.244V45.766C169.244 46.962 169.489 47.7747 169.98 48.204C170.501 48.6333 171.268 48.848 172.28 48.848H175.73V54H169.75ZM158.388 34.496V29.344H175.73V34.496H158.388ZM190.571 54.552C188.057 54.552 185.864 54.0307 183.993 52.988C182.123 51.9147 180.666 50.412 179.623 48.48C178.581 46.548 178.059 44.2787 178.059 41.672C178.059 39.0653 178.581 36.8113 179.623 34.91C180.666 32.978 182.123 31.4753 183.993 30.402C185.864 29.3287 188.057 28.792 190.571 28.792C192.749 28.792 194.696 29.1753 196.413 29.942C198.161 30.7087 199.572 31.8127 200.645 33.254C201.719 34.6953 202.378 36.428 202.623 38.452L195.493 38.774C195.279 37.2407 194.727 36.0907 193.837 35.324C192.979 34.5267 191.89 34.128 190.571 34.128C188.854 34.128 187.52 34.7873 186.569 36.106C185.619 37.4247 185.143 39.28 185.143 41.672C185.143 44.064 185.619 45.9347 186.569 47.284C187.52 48.6027 188.854 49.262 190.571 49.262C191.89 49.262 192.994 48.8633 193.883 48.066C194.773 47.238 195.309 45.996 195.493 44.34L202.623 44.616C202.409 46.64 201.765 48.4033 200.691 49.906C199.649 51.378 198.253 52.528 196.505 53.356C194.788 54.1533 192.81 54.552 190.571 54.552ZM206.436 54V21.34H213.336V35.094H212.416C212.662 33.6527 213.137 32.472 213.842 31.552C214.578 30.632 215.483 29.942 216.556 29.482C217.66 29.022 218.856 28.792 220.144 28.792C221.984 28.792 223.518 29.1907 224.744 29.988C225.971 30.7853 226.891 31.8893 227.504 33.3C228.148 34.7107 228.47 36.3207 228.47 38.13V54H221.57V39.786C221.57 37.946 221.279 36.566 220.696 35.646C220.144 34.726 219.194 34.266 217.844 34.266C216.434 34.266 215.33 34.7413 214.532 35.692C213.735 36.6427 213.336 38.0687 213.336 39.97V54H206.436Z" fill="white"/>
<circle cx="245" cy="38" r="8" fill="#FF6800"/>
<defs>
<filter id="filter0_d_0_1" x="18" y="29" width="87" height="65" filterUnits="userSpaceOnUse" color-interpolation-filters="sRGB">
<feFlood flood-opacity="0" result="BackgroundImageFix"/>
<feColorMatrix in="SourceAlpha" type="matrix" values="0 0 0 0 0 0 0 0 0 0 0 0 0 0 0 0 0 0 127 0" result="hardAlpha"/>
<feMorphology radius="10" operator="dilate" in="SourceAlpha" result="effect1_dropShadow_0_1"/>
<feOffset dy="1"/>
<feGaussianBlur stdDeviation="10.5"/>
<feComposite in2="hardAlpha" operator="out"/>
<feColorMatrix type="matrix" values="0 0 0 0 0.784314 0 0 0 0 0.294118 0 0 0 0 0.913725 0 0 0 1 0"/>
<feBlend mode="normal" in2="BackgroundImageFix" result="effect1_dropShadow_0_1"/>
<feBlend mode="normal" in="SourceGraphic" in2="effect1_dropShadow_0_1" result="shape"/>
</filter>
<filter id="filter1_d_0_1" x="0" y="29" width="87" height="65" filterUnits="userSpaceOnUse" color-interpolation-filters="sRGB">
<feFlood flood-opacity="0" result="BackgroundImageFix"/>
<feColorMatrix in="SourceAlpha" type="matrix" values="0 0 0 0 0 0 0 0 0 0 0 0 0 0 0 0 0 0 127 0" result="hardAlpha"/>
<feMorphology radius="10" operator="dilate" in="SourceAlpha" result="effect1_dropShadow_0_1"/>
<feOffset dy="1"/>
<feGaussianBlur stdDeviation="10.5"/>
<feComposite in2="hardAlpha" operator="out"/>
<feColorMatrix type="matrix" values="0 0 0 0 0.996078 0 0 0 0 0.2 0 0 0 0 0.615686 0 0 0 1 0"/>
<feBlend mode="normal" in2="BackgroundImageFix" result="effect1_dropShadow_0_1"/>
<feBlend mode="normal" in="SourceGraphic" in2="effect1_dropShadow_0_1" result="shape"/>
</filter>
<linearGradient id="paint0_linear_0_1" x1="14" y1="-2.5" x2="85" y2="71" gradientUnits="userSpaceOnUse">
<stop stop-color="#FF5B1C"/>
<stop offset="0.50187" stop-color="#FF329A"/>
<stop offset="1" stop-color="#C84BE9"/>
</linearGradient>
<linearGradient id="paint1_linear_0_1" x1="20" y1="7.5" x2="85" y2="75" gradientUnits="userSpaceOnUse">
<stop stop-color="#FF5B1C"/>
<stop offset="0.50187" stop-color="#FF329A"/>
<stop offset="1" stop-color="#C84BE9"/>
</linearGradient>
</defs>
</svg>
